<svg width="24" height="24" viewBox="0 0 24 24" fill="none" xmlns="http://www.w3.org/2000/svg">
<path d="M1.93948 1.93938C2.22078 1.65817 2.60224 1.5002 2.99998 1.5002C3.39773 1.5002 3.77919 1.65817 4.06048 1.93938L12 9.87888L19.9395 1.93938C20.0779 1.79611 20.2434 1.68184 20.4264 1.60323C20.6094 1.52461 20.8062 1.48323 21.0054 1.4815C21.2046 1.47977 21.4021 1.51772 21.5864 1.59315C21.7708 1.66857 21.9382 1.77995 22.0791 1.92079C22.2199 2.06162 22.3313 2.2291 22.4067 2.41345C22.4821 2.59779 22.5201 2.79531 22.5184 2.99448C22.5166 3.19365 22.4752 3.39048 22.3966 3.57348C22.318 3.75649 22.2037 3.92201 22.0605 4.06038L14.121 11.9999L22.0605 19.9394C22.3337 20.2223 22.4849 20.6012 22.4815 20.9945C22.4781 21.3878 22.3203 21.764 22.0422 22.0421C21.7641 22.3202 21.3879 22.478 20.9946 22.4814C20.6013 22.4848 20.2224 22.3336 19.9395 22.0604L12 14.1209L4.06048 22.0604C3.77758 22.3336 3.39868 22.4848 3.00538 22.4814C2.61209 22.478 2.23587 22.3202 1.95776 22.0421C1.67964 21.764 1.52189 21.3878 1.51847 20.9945C1.51506 20.6012 1.66625 20.2223 1.93948 19.9394L9.87898 11.9999L1.93948 4.06038C1.65828 3.77909 1.50031 3.39762 1.50031 2.99988C1.50031 2.60213 1.65828 2.22067 1.93948 1.93938Z" fill="black"/>
</svg>
